<svg xmlns="http://www.w3.org/2000/svg" width="40" height="30">
  <path d="M27.025 0q.437 0 .844.452.302.332.422 1.206.392-.015.543.06.482.181.694.393.21.196.21.512 0 .603-.24.844-3.634 3.302-7.176 8.02 2.23 3.076 4.462 5.518.256.271.256.633 0 .739-.452 1.13-.302.257-.86.287-.03.256-.24.784-.362.874-.845.874-.543 0-.995-.361-.12.27-.331.437-.543.407-.95.407-.347 0-.739-.422-1.342-1.433-3.166-4.312-3.467 3.935-4.794 5.97-.256.392-.572.392h-.03q-.272 0-.528-.543-.226-.467-.257-.663-.301.18-.572.18-.377 0-.814-.452-.543-.527-.543-.783 0-.407.452-1.086-.136-.045-.271-.241-.272-.362-.272-.724 0-.316.362-.784 1.96-2.653 4.915-5.849-1.84-2.849-3.332-6.874-.332-.92-.332-1.342 0-.392.347-1.13.241-.483.573-.483.392 0 1.116.588.015-.21.18-.588.347-.754.604-.754.648 0 .844.392 1.598 2.955 3.859 5.76 3.482-3.98 7.236-7.267.181-.181.392-.181z" fill="#f00"/>
</svg>
