<svg xmlns="http://www.w3.org/2000/svg" width="1790" height="2271" font-family="Open Sans" font-size="16">
	<path fill="#eee" d="M20 215H1770V239H20zM20 263H1770V287H20zM20 311H1770V335H20zM20 359H1770V383H20zM20 407H1770V431H20zM20 455H1770V479H20zM20 503H1770V527H20zM20 551H1770V575H20zM20 599H1770V623H20zM20 647H1770V671H20zM20 695H1770V719H20zM20 743H1770V767H20zM20 791H1770V815H20zM20 839H1770V863H20zM20 887H1770V911H20zM20 935H1770V959H20zM20 983H1770V1007H20zM20 1031H1770V1055H20zM20 1079H1770V1103H20zM20 1127H1770V1151H20zM20 1175H1770V1199H20zM20 1223H1770V1247H20zM20 1271H1770V1295H20zM20 1319H1770V1343H20zM20 1367H1770V1391H20zM20 1415H1770V1439H20zM20 1463H1770V1487H20zM20 1511H1770V1535H20zM20 1559H1770V1583H20zM20 1607H1770V1631H20zM20 1655H1770V1679H20zM20 1703H1770V1727H20zM20 1751H1770V1775H20zM20 1799H1770V1823H20zM20 1847H1770V1871H20zM20 1895H1770V1919H20zM20 1943H1770V1967H20zM20 1991H1770V2015H20zM20 2039H1770V2063H20zM20 2087H1770V2111H20zM20 2135H1770V2159H20zM20 2183H1770V2207H20z"/>
	<g stroke-dasharray="2 2">
		<path fill="none" stroke="gray" d="m 250,2296.4456 v -2064 m 50,0 v 2064 m 50,-2064 v 2064 m 50,0 v -2064 m 50,0 v 2064" transform="translate(20.5,-45.445557)"/>
		<text x="252" y="2295.157" font-size="10" transform="translate(20.5,-45.445557)">0</text>
		<text x="302" y="2295.157" font-size="10" transform="translate(20.5,-45.445557)">5,000</text>
		<text x="352" y="2295.157" font-size="10" transform="translate(20.5,-45.445557)">10,000</text>
		<text x="402" y="2295.157" font-size="10" transform="translate(20.5,-45.445557)">15,000</text>
		<text x="452" y="2295.157" font-size="10" transform="translate(20.5,-45.445557)">20,000</text>
	</g>
	<g stroke-dasharray="2 2">
		<path fill="none" stroke="gray" d="m 250,2296.4456 v -2064 m 50,0 v 2064 m 50,-2064 v 2064 m 50,0 v -2064 m 50,0 v 2064" transform="translate(270.5,-45.445557)"/>
		<text x="252" y="2295.157" font-size="10" transform="translate(270.5,-45.445557)">0</text>
		<text x="302" y="2295.157" font-size="10" transform="translate(270.5,-45.445557)">5,000</text>
		<text x="352" y="2295.157" font-size="10" transform="translate(270.5,-45.445557)">10,000</text>
		<text x="402" y="2295.157" font-size="10" transform="translate(270.5,-45.445557)">15,000</text>
		<text x="452" y="2295.157" font-size="10" transform="translate(270.5,-45.445557)">20,000</text>
	</g>
	<g stroke-dasharray="2 2">
		<path fill="none" stroke="gray" d="m 250,2296.4456 v -2064 m 50,0 v 2064 m 50,-2064 v 2064 m 50,0 v -2064 m 50,0 v 2064" transform="translate(520.5,-45.445557)"/>
		<text x="252" y="2295.157" font-size="10" transform="translate(520.5,-45.445557)">0</text>
		<text x="302" y="2295.157" font-size="10" transform="translate(520.5,-45.445557)">5,000</text>
		<text x="352" y="2295.157" font-size="10" transform="translate(520.5,-45.445557)">10,000</text>
		<text x="402" y="2295.157" font-size="10" transform="translate(520.5,-45.445557)">15,000</text>
		<text x="452" y="2295.157" font-size="10" transform="translate(520.5,-45.445557)">20,000</text>
	</g>
	<g stroke-dasharray="2 2">
		<path fill="none" stroke="gray" d="m 250,2296.4456 v -2064 m 50,0 v 2064 m 50,-2064 v 2064 m 50,0 v -2064 m 50,0 v 2064" transform="translate(770.5,-45.445557)"/>
		<text x="252" y="2295.157" font-size="10" transform="translate(770.5,-45.445557)">0</text>
		<text x="302" y="2295.157" font-size="10" transform="translate(770.5,-45.445557)">5,000</text>
		<text x="352" y="2295.157" font-size="10" transform="translate(770.5,-45.445557)">10,000</text>
		<text x="402" y="2295.157" font-size="10" transform="translate(770.5,-45.445557)">15,000</text>
		<text x="452" y="2295.157" font-size="10" transform="translate(770.5,-45.445557)">20,000</text>
	</g>
	<g stroke-dasharray="2 2">
		<path fill="none" stroke="gray" d="m 250,2296.4456 v -2064 m 50,0 v 2064 m 50,-2064 v 2064 m 50,0 v -2064 m 50,0 v 2064" transform="translate(1020.5,-45.445557)"/>
		<text x="252" y="2295.157" font-size="10" transform="translate(1020.5,-45.445557)">0</text>
		<text x="302" y="2295.157" font-size="10" transform="translate(1020.5,-45.445557)">5,000</text>
		<text x="352" y="2295.157" font-size="10" transform="translate(1020.5,-45.445557)">10,000</text>
		<text x="402" y="2295.157" font-size="10" transform="translate(1020.5,-45.445557)">15,000</text>
		<text x="452" y="2295.157" font-size="10" transform="translate(1020.5,-45.445557)">20,000</text>
	</g>
	<g stroke-dasharray="2 2">
		<path fill="none" stroke="gray" d="m 250,2296.4456 v -2064 m 50,0 v 2064 m 50,-2064 v 2064 m 50,0 v -2064 m 50,0 v 2064" transform="translate(1270.5,-45.445557)"/>
		<text x="252" y="2295.157" font-size="10" transform="translate(1270.5,-45.445557)">0</text>
		<text x="302" y="2295.157" font-size="10" transform="translate(1270.5,-45.445557)">5,000</text>
		<text x="352" y="2295.157" font-size="10" transform="translate(1270.5,-45.445557)">10,000</text>
		<text x="402" y="2295.157" font-size="10" transform="translate(1270.5,-45.445557)">15,000</text>
		<text x="452" y="2295.157" font-size="10" transform="translate(1270.5,-45.445557)">20,000</text>
	</g>
	<text x="894.029" y="41.173" font-size="28" font-weight="600" text-anchor="middle">How safe is that seat?</text>
	<text x="894.473" y="79.173" font-size="20" font-weight="600" text-anchor="middle">Electorate majorities from the last six general elections</text>
	<text x="895.006" y="99.173" font-size="12" text-anchor="middle">(data from www.parliament.nz, electionresults.govt.nz)</text>
	<g>
		<path fill="#0000e6" d="M139.862 130.949H159.862V150.949H139.862z" transform="translate(290.18625,-9.1563721) translate(487.83035)"/>
		<text x="163.862" y="147.949" font-size="18" transform="translate(290.18625,-9.1563721) translate(487.83035)">National</text>
		<path fill="red" d="M254.316 130.949H274.31600000000003V150.949H254.316z" transform="translate(290.18625,-9.1563721) translate(105.17942)"/>
		<text x="278.316" y="147.949" font-size="18" transform="translate(290.18625,-9.1563721) translate(105.17942)">Labour</text>
		<path fill="#ff0" d="M358.724 130.949H378.724V150.949H358.724z" transform="translate(290.18625,-9.1563721) translate(-261.22063)"/>
		<text x="382.724" y="147.949" font-size="18" transform="translate(290.18625,-9.1563721) translate(-261.22063)">ACT</text>
		<path fill="#909" d="M436.264 130.949H456.264V150.949H436.264z" transform="translate(290.18625,-9.1563721) translate(536.74136)"/>
		<text x="460.264" y="147.949" font-size="18" transform="translate(290.18625,-9.1563721) translate(536.74136)">United Future</text>
		<path fill="#600" d="M596.385 130.949H616.385V150.949H596.385z" transform="translate(290.18625,-9.1563721) translate(-54.751991)"/>
		<text x="620.385" y="147.949" font-size="18" transform="translate(290.18625,-9.1563721) translate(-54.751991)">Maori</text>
		<g>
			<path fill="#b30000" d="M689.007 130.949H709.007V150.949H689.007z" transform="translate(290.18625,-9.1563721) translate(-231.66633)"/>
			<text x="713.007" y="147.949" font-size="18" transform="translate(290.18625,-9.1563721) translate(-231.66633)">Mana</text>
		</g>
		<g>
			<path fill="#999" d="M779.862 130.949H799.862V150.949H779.862z" transform="translate(290.18625,-9.1563721) translate(58.427208)"/>
			<text x="803.862" y="147.949" font-size="18" transform="translate(290.18625,-9.1563721) translate(58.427208)">Progressive</text>
		</g>
		<g>
			<path d="M436.264 130.949H456.264V150.949H436.264z" transform="translate(290.18625,-9.1563721) translate(299.32021)"/>
			<text x="460.264" y="147.949" font-size="18" transform="translate(290.18625,-9.1563721) translate(299.32021)">NZ First</text>
		</g>
		<g>
			<path fill="#00b300" d="M436.264 130.949H456.264V150.949H436.264z" transform="translate(290.18625,-9.1563721) translate(-267.78313)"/>
			<text x="460.264" y="147.949" font-size="18" transform="translate(290.18625,-9.1563721) translate(-267.78313)">Alliance</text>
		</g>
		<g>
			<path fill="#060" d="M436.264 130.949H456.264V150.949H436.264z" transform="translate(290.18625,-9.1563721) translate(-165.44654)"/>
			<text x="460.264" y="147.949" font-size="18" transform="translate(290.18625,-9.1563721) translate(-165.44654)">Green</text>
		</g>
	</g>
	<g font-size="20" font-weight="600" style="cursor: pointer;">
		<text x="28" y="177" onclick="sort(0);">Electorate</text>
		<text x="270" y="177" onclick="sort(250);">1999</text>
		<text x="520" y="177" onclick="sort(500);">2002</text>
		<text x="770" y="177" onclick="sort(750);">2005</text>
		<text x="1020" y="177" onclick="sort(1000);">2008</text>
		<text x="1270" y="177" onclick="sort(1250);">2011</text>
		<text x="1520" y="177" onclick="sort(1500);">2014</text>
	</g>
	<g id="data" transform="translate(20,191)">
		<g transform="translate(0, 0)">
			<text x="8" y="19">Albany</text>
			<rect x="250" y="2" width="49.48" height="20" fill="#0000e6" />
		</g>
		<g transform="translate(0, 24)">
			<text x="8" y="19">Aoraki</text>
			<rect x="250" y="2" width="71.39" height="20" fill="#ff0000" />
			<rect x="500" y="2" width="64.53" height="20" fill="#ff0000" />
			<rect x="750" y="2" width="69.37" height="20" fill="#0000e6" />
		</g>
		<g transform="translate(0, 48)">
			<text x="8" y="19">Auckland Central</text>
			<rect x="250" y="2" width="52.85" height="20" fill="#ff0000" />
			<rect x="500" y="2" width="52.05" height="20" fill="#ff0000" />
			<rect x="750" y="2" width="38.84" height="20" fill="#ff0000" />
			<rect x="1000" y="2" width="14.97" height="20" fill="#0000e6" />
			<rect x="1250" y="2" width="7.17" height="20" fill="#0000e6" />
			<rect x="1500" y="2" width="6.00" height="20" fill="#0000e6" />
		</g>
		<g transform="translate(0, 72)">
			<text x="8" y="19">Banks Peninsula</text>
			<rect x="250" y="2" width="14.55" height="20" fill="#ff0000" />
			<rect x="500" y="2" width="40.57" height="20" fill="#ff0000" />
			<rect x="750" y="2" width="19.23" height="20" fill="#ff0000" />
		</g>
		<g transform="translate(0, 96)">
			<text x="8" y="19">Bay of Plenty</text>
			<rect x="250" y="2" width="71.02" height="20" fill="#0000e6" />
			<rect x="500" y="2" width="55.97" height="20" fill="#0000e6" />
			<rect x="750" y="2" width="135.84" height="20" fill="#0000e6" />
			<rect x="1000" y="2" width="176.04" height="20" fill="#0000e6" />
			<rect x="1250" y="2" width="177.60" height="20" fill="#0000e6" />
			<rect x="1500" y="2" width="150.96" height="20" fill="#0000e6" />
		</g>
		<g transform="translate(0, 120)">
			<text x="8" y="19">Botany</text>
			<rect x="1000" y="2" width="108.72" height="20" fill="#0000e6" />
			<rect x="1250" y="2" width="107.41" height="20" fill="#0000e6" />
			<rect x="1500" y="2" width="134.95" height="20" fill="#0000e6" />
		</g>
		<g transform="translate(0, 144)">
			<text x="8" y="19">Christchurch Central</text>
			<rect x="250" y="2" width="94.04" height="20" fill="#ff0000" />
			<rect x="500" y="2" width="103.53" height="20" fill="#ff0000" />
			<rect x="750" y="2" width="78.36" height="20" fill="#ff0000" />
			<rect x="1000" y="2" width="9.35" height="20" fill="#ff0000" />
			<rect x="1250" y="2" width="0.47" height="20" fill="#0000e6" />
			<rect x="1500" y="2" width="24.20" height="20" fill="#0000e6" />
		</g>
		<g transform="translate(0, 168)">
			<text x="8" y="19">Christchurch East</text>
			<rect x="250" y="2" width="111.62" height="20" fill="#ff0000" />
			<rect x="500" y="2" width="148.64" height="20" fill="#ff0000" />
			<rect x="750" y="2" width="119.73" height="20" fill="#ff0000" />
			<rect x="1000" y="2" width="57.65" height="20" fill="#ff0000" />
			<rect x="1250" y="2" width="53.34" height="20" fill="#ff0000" />
			<rect x="1500" y="2" width="40.73" height="20" fill="#ff0000" />
		</g>
		<g transform="translate(0, 192)">
			<text x="8" y="19">Clevedon</text>
			<rect x="500" y="2" width="31.27" height="20" fill="#0000e6" />
			<rect x="750" y="2" width="128.71" height="20" fill="#0000e6" />
		</g>
		<g transform="translate(0, 216)">
			<text x="8" y="19">Clutha-Southland</text>
			<rect x="250" y="2" width="64.01" height="20" fill="#0000e6" />
			<rect x="500" y="2" width="68.08" height="20" fill="#0000e6" />
			<rect x="750" y="2" width="130.32" height="20" fill="#0000e6" />
			<rect x="1000" y="2" width="154.75" height="20" fill="#0000e6" />
			<rect x="1250" y="2" width="161.68" height="20" fill="#0000e6" />
			<rect x="1500" y="2" width="148.86" height="20" fill="#0000e6" />
		</g>
		<g transform="translate(0, 240)">
			<text x="8" y="19">Coromandel</text>
			<rect x="250" y="2" width="2.50" height="20" fill="#006600" />
			<rect x="500" y="2" width="59.58" height="20" fill="#0000e6" />
			<rect x="750" y="2" width="105.78" height="20" fill="#0000e6" />
			<rect x="1000" y="2" width="145.60" height="20" fill="#0000e6" />
			<rect x="1250" y="2" width="127.40" height="20" fill="#0000e6" />
			<rect x="1500" y="2" width="158.01" height="20" fill="#0000e6" />
		</g>
		<g transform="translate(0, 264)">
			<text x="8" y="19">Dunedin North</text>
			<rect x="250" y="2" width="126.95" height="20" fill="#ff0000" />
			<rect x="500" y="2" width="106.37" height="20" fill="#ff0000" />
			<rect x="750" y="2" width="76.30" height="20" fill="#ff0000" />
			<rect x="1000" y="2" width="71.55" height="20" fill="#ff0000" />
			<rect x="1250" y="2" width="34.89" height="20" fill="#ff0000" />
			<rect x="1500" y="2" width="59.17" height="20" fill="#ff0000" />
		</g>
		<g transform="translate(0, 288)">
			<text x="8" y="19">Dunedin South</text>
			<rect x="250" y="2" width="106.08" height="20" fill="#ff0000" />
			<rect x="500" y="2" width="147.24" height="20" fill="#ff0000" />
			<rect x="750" y="2" width="106.40" height="20" fill="#ff0000" />
			<rect x="1000" y="2" width="64.49" height="20" fill="#ff0000" />
			<rect x="1250" y="2" width="41.75" height="20" fill="#ff0000" />
			<rect x="1500" y="2" width="38.58" height="20" fill="#ff0000" />
		</g>
		<g transform="translate(0, 312)">
			<text x="8" y="19">East Coast</text>
			<rect x="250" y="2" width="38.45" height="20" fill="#ff0000" />
			<rect x="500" y="2" width="53.43" height="20" fill="#ff0000" />
			<rect x="750" y="2" width="12.19" height="20" fill="#0000e6" />
			<rect x="1000" y="2" width="64.13" height="20" fill="#0000e6" />
			<rect x="1250" y="2" width="47.74" height="20" fill="#0000e6" />
			<rect x="1500" y="2" width="79.34" height="20" fill="#0000e6" />
		</g>
		<g transform="translate(0, 336)">
			<text x="8" y="19">East Coast Bays</text>
			<rect x="500" y="2" width="15.34" height="20" fill="#0000e6" />
			<rect x="750" y="2" width="72.86" height="20" fill="#0000e6" />
			<rect x="1000" y="2" width="139.74" height="20" fill="#0000e6" />
			<rect x="1250" y="2" width="146.41" height="20" fill="#0000e6" />
			<rect x="1500" y="2" width="150.34" height="20" fill="#0000e6" />
		</g>
		<g transform="translate(0, 360)">
			<text x="8" y="19">Epsom</text>
			<rect x="250" y="2" width="19.08" height="20" fill="#0000e6" />
			<rect x="500" y="2" width="56.19" height="20" fill="#0000e6" />
			<rect x="750" y="2" width="31.02" height="20" fill="#ffff00" />
			<rect x="1000" y="2" width="128.82" height="20" fill="#ffff00" />
			<rect x="1250" y="2" width="22.61" height="20" fill="#ffff00" />
			<rect x="1500" y="2" width="42.50" height="20" fill="#ffff00" />
		</g>
		<g transform="translate(0, 384)">
			<text x="8" y="19">Hamilton East</text>
			<rect x="250" y="2" width="6.92" height="20" fill="#0000e6" />
			<rect x="500" y="2" width="6.14" height="20" fill="#ff0000" />
			<rect x="750" y="2" width="52.98" height="20" fill="#0000e6" />
			<rect x="1000" y="2" width="88.20" height="20" fill="#0000e6" />
			<rect x="1250" y="2" width="82.75" height="20" fill="#0000e6" />
			<rect x="1500" y="2" width="101.99" height="20" fill="#0000e6" />
		</g>
		<g transform="translate(0, 408)">
			<text x="8" y="19">Hamilton West</text>
			<rect x="250" y="2" width="16.29" height="20" fill="#ff0000" />
			<rect x="500" y="2" width="55.74" height="20" fill="#ff0000" />
			<rect x="750" y="2" width="8.25" height="20" fill="#ff0000" />
			<rect x="1000" y="2" width="16.18" height="20" fill="#0000e6" />
			<rect x="1250" y="2" width="44.18" height="20" fill="#0000e6" />
			<rect x="1500" y="2" width="57.84" height="20" fill="#0000e6" />
		</g>
		<g transform="translate(0, 432)">
			<text x="8" y="19">Hauraki</text>
			<rect x="250" y="2" width="72.38" height="20" fill="#ff0000" />
		</g>
		<g transform="translate(0, 456)">
			<text x="8" y="19">Hauraki-Waikato</text>
			<rect x="1000" y="2" width="8.88" height="20" fill="#ff0000" />
			<rect x="1250" y="2" width="59.35" height="20" fill="#ff0000" />
			<rect x="1500" y="2" width="76.95" height="20" fill="#ff0000" />
		</g>
		<g transform="translate(0, 480)">
			<text x="8" y="19">Helensville</text>
			<rect x="500" y="2" width="17.05" height="20" fill="#0000e6" />
			<rect x="750" y="2" width="127.78" height="20" fill="#0000e6" />
			<rect x="1000" y="2" width="205.47" height="20" fill="#0000e6" />
			<rect x="1250" y="2" width="210.66" height="20" fill="#0000e6" />
			<rect x="1500" y="2" width="182.87" height="20" fill="#0000e6" />
		</g>
		<g transform="translate(0, 504)">
			<text x="8" y="19">Hunua</text>
			<rect x="250" y="2" width="51.95" height="20" fill="#0000e6" />
			<rect x="1000" y="2" width="158.58" height="20" fill="#0000e6" />
			<rect x="1250" y="2" width="167.97" height="20" fill="#0000e6" />
			<rect x="1500" y="2" width="173.76" height="20" fill="#0000e6" />
		</g>
		<g transform="translate(0, 528)">
			<text x="8" y="19">Hutt South</text>
			<rect x="250" y="2" width="88.85" height="20" fill="#ff0000" />
			<rect x="500" y="2" width="77.71" height="20" fill="#ff0000" />
			<rect x="750" y="2" width="57.40" height="20" fill="#ff0000" />
			<rect x="1000" y="2" width="40.86" height="20" fill="#ff0000" />
			<rect x="1250" y="2" width="48.25" height="20" fill="#ff0000" />
			<rect x="1500" y="2" width="7.09" height="20" fill="#ff0000" />
		</g>
		<g transform="translate(0, 552)">
			<text x="8" y="19">Ikaroa-Rāwhiti</text>
			<rect x="250" y="2" width="6.95" height="20" fill="#ff0000" />
			<rect x="500" y="2" width="103.59" height="20" fill="#ff0000" />
			<rect x="750" y="2" width="19.32" height="20" fill="#ff0000" />
			<rect x="1000" y="2" width="16.45" height="20" fill="#ff0000" />
			<rect x="1250" y="2" width="65.41" height="20" fill="#ff0000" />
			<rect x="1500" y="2" width="46.73" height="20" fill="#ff0000" />
		</g>
		<g transform="translate(0, 576)">
			<text x="8" y="19">Ilam</text>
			<rect x="250" y="2" width="67.92" height="20" fill="#0000e6" />
			<rect x="500" y="2" width="38.72" height="20" fill="#0000e6" />
			<rect x="750" y="2" width="78.21" height="20" fill="#0000e6" />
			<rect x="1000" y="2" width="118.93" height="20" fill="#0000e6" />
			<rect x="1250" y="2" width="133.12" height="20" fill="#0000e6" />
			<rect x="1500" y="2" width="118.98" height="20" fill="#0000e6" />
		</g>
		<g transform="translate(0, 600)">
			<text x="8" y="19">Invercargill</text>
			<rect x="250" y="2" width="79.90" height="20" fill="#ff0000" />
			<rect x="500" y="2" width="27.92" height="20" fill="#ff0000" />
			<rect x="750" y="2" width="20.52" height="20" fill="#0000e6" />
			<rect x="1000" y="2" width="66.64" height="20" fill="#0000e6" />
			<rect x="1250" y="2" width="62.63" height="20" fill="#0000e6" />
			<rect x="1500" y="2" width="74.82" height="20" fill="#0000e6" />
		</g>
		<g transform="translate(0, 624)">
			<text x="8" y="19">Kaikōura</text>
			<rect x="250" y="2" width="14.86" height="20" fill="#0000e6" />
			<rect x="500" y="2" width="30.69" height="20" fill="#0000e6" />
			<rect x="750" y="2" width="46.75" height="20" fill="#0000e6" />
			<rect x="1000" y="2" width="110.77" height="20" fill="#0000e6" />
			<rect x="1250" y="2" width="114.45" height="20" fill="#0000e6" />
			<rect x="1500" y="2" width="125.70" height="20" fill="#0000e6" />
		</g>
		<g transform="translate(0, 648)">
			<text x="8" y="19">Karapiro</text>
			<rect x="250" y="2" width="52.16" height="20" fill="#0000e6" />
		</g>
		<g transform="translate(0, 672)">
			<text x="8" y="19">Kelston</text>
			<rect x="1500" y="2" width="53.67" height="20" fill="#ff0000" />
		</g>
		<g transform="translate(0, 696)">
			<text x="8" y="19">Mana</text>
			<rect x="250" y="2" width="54.75" height="20" fill="#ff0000" />
			<rect x="500" y="2" width="63.76" height="20" fill="#ff0000" />
			<rect x="750" y="2" width="67.34" height="20" fill="#ff0000" />
			<rect x="1000" y="2" width="61.55" height="20" fill="#ff0000" />
			<rect x="1250" y="2" width="22.30" height="20" fill="#ff0000" />
			<rect x="1500" y="2" width="79.53" height="20" fill="#ff0000" />
		</g>
		<g transform="translate(0, 720)">
			<text x="8" y="19">Māngere</text>
			<rect x="250" y="2" width="130.47" height="20" fill="#ff0000" />
			<rect x="500" y="2" width="153.75" height="20" fill="#ff0000" />
			<rect x="750" y="2" width="160.20" height="20" fill="#ff0000" />
			<rect x="1000" y="2" width="71.26" height="20" fill="#ff0000" />
			<rect x="1250" y="2" width="151.59" height="20" fill="#ff0000" />
			<rect x="1500" y="2" width="149.33" height="20" fill="#ff0000" />
		</g>
		<g transform="translate(0, 744)">
			<text x="8" y="19">Manukau East</text>
			<rect x="250" y="2" width="70.86" height="20" fill="#ff0000" />
			<rect x="500" y="2" width="106.57" height="20" fill="#ff0000" />
			<rect x="750" y="2" width="98.90" height="20" fill="#ff0000" />
			<rect x="1000" y="2" width="124.45" height="20" fill="#ff0000" />
			<rect x="1250" y="2" width="158.38" height="20" fill="#ff0000" />
			<rect x="1500" y="2" width="132.54" height="20" fill="#ff0000" />
		</g>
		<g transform="translate(0, 768)">
			<text x="8" y="19">Manurewa</text>
			<rect x="250" y="2" width="130.62" height="20" fill="#ff0000" />
			<rect x="500" y="2" width="125.48" height="20" fill="#ff0000" />
			<rect x="750" y="2" width="117.07" height="20" fill="#ff0000" />
			<rect x="1000" y="2" width="67.26" height="20" fill="#ff0000" />
			<rect x="1250" y="2" width="86.10" height="20" fill="#ff0000" />
			<rect x="1500" y="2" width="64.02" height="20" fill="#ff0000" />
		</g>
		<g transform="translate(0, 792)">
			<text x="8" y="19">Maungakiekie</text>
			<rect x="250" y="2" width="25.12" height="20" fill="#ff0000" />
			<rect x="500" y="2" width="66.03" height="20" fill="#ff0000" />
			<rect x="750" y="2" width="64.50" height="20" fill="#ff0000" />
			<rect x="1000" y="2" width="19.42" height="20" fill="#0000e6" />
			<rect x="1250" y="2" width="30.21" height="20" fill="#0000e6" />
			<rect x="1500" y="2" width="23.48" height="20" fill="#0000e6" />
		</g>
		<g transform="translate(0, 816)">
			<text x="8" y="19">Mt Albert</text>
			<rect x="250" y="2" width="131.08" height="20" fill="#ff0000" />
			<rect x="500" y="2" width="160.24" height="20" fill="#ff0000" />
			<rect x="750" y="2" width="147.49" height="20" fill="#ff0000" />
			<rect x="1000" y="2" width="103.51" height="20" fill="#ff0000" />
			<rect x="1250" y="2" width="100.21" height="20" fill="#ff0000" />
			<rect x="1500" y="2" width="106.56" height="20" fill="#ff0000" />
		</g>
		<g transform="translate(0, 840)">
			<text x="8" y="19">Mt Roskill</text>
			<rect x="250" y="2" width="97.07" height="20" fill="#ff0000" />
			<rect x="500" y="2" width="137.15" height="20" fill="#ff0000" />
			<rect x="750" y="2" width="98.95" height="20" fill="#ff0000" />
			<rect x="1000" y="2" width="64.18" height="20" fill="#ff0000" />
			<rect x="1250" y="2" width="72.71" height="20" fill="#ff0000" />
			<rect x="1500" y="2" width="80.91" height="20" fill="#ff0000" />
		</g>
		<g transform="translate(0, 864)">
			<text x="8" y="19">Napier</text>
			<rect x="250" y="2" width="118.63" height="20" fill="#ff0000" />
			<rect x="500" y="2" width="41.57" height="20" fill="#ff0000" />
			<rect x="750" y="2" width="35.91" height="20" fill="#0000e6" />
			<rect x="1000" y="2" width="90.18" height="20" fill="#0000e6" />
			<rect x="1250" y="2" width="37.01" height="20" fill="#0000e6" />
			<rect x="1500" y="2" width="38.50" height="20" fill="#ff0000" />
		</g>
		<g transform="translate(0, 888)">
			<text x="8" y="19">Nelson</text>
			<rect x="250" y="2" width="45.21" height="20" fill="#0000e6" />
			<rect x="500" y="2" width="42.32" height="20" fill="#0000e6" />
			<rect x="750" y="2" width="102.26" height="20" fill="#0000e6" />
			<rect x="1000" y="2" width="84.71" height="20" fill="#0000e6" />
			<rect x="1250" y="2" width="70.88" height="20" fill="#0000e6" />
			<rect x="1500" y="2" width="76.05" height="20" fill="#0000e6" />
		</g>
		<g transform="translate(0, 912)">
			<text x="8" y="19">New Lynn</text>
			<rect x="500" y="2" width="111.85" height="20" fill="#ff0000" />
			<rect x="750" y="2" width="80.78" height="20" fill="#ff0000" />
			<rect x="1000" y="2" width="40.25" height="20" fill="#ff0000" />
			<rect x="1250" y="2" width="51.90" height="20" fill="#ff0000" />
			<rect x="1500" y="2" width="45.57" height="20" fill="#ff0000" />
		</g>
		<g transform="translate(0, 936)">
			<text x="8" y="19">New Plymouth</text>
			<rect x="250" y="2" width="150.92" height="20" fill="#ff0000" />
			<rect x="500" y="2" width="149.30" height="20" fill="#ff0000" />
			<rect x="750" y="2" width="54.39" height="20" fill="#ff0000" />
			<rect x="1000" y="2" width="1.05" height="20" fill="#0000e6" />
			<rect x="1250" y="2" width="42.70" height="20" fill="#0000e6" />
			<rect x="1500" y="2" width="97.78" height="20" fill="#0000e6" />
		</g>
		<g transform="translate(0, 960)">
			<text x="8" y="19">North Shore</text>
			<rect x="250" y="2" width="70.48" height="20" fill="#0000e6" />
			<rect x="500" y="2" width="50.98" height="20" fill="#0000e6" />
			<rect x="750" y="2" width="97.01" height="20" fill="#0000e6" />
			<rect x="1000" y="2" width="145.74" height="20" fill="#0000e6" />
			<rect x="1250" y="2" width="152.28" height="20" fill="#0000e6" />
			<rect x="1500" y="2" width="165.03" height="20" fill="#0000e6" />
		</g>
		<g transform="translate(0, 984)">
			<text x="8" y="19">Northcote</text>
			<rect x="250" y="2" width="2.78" height="20" fill="#ff0000" />
			<rect x="500" y="2" width="26.24" height="20" fill="#ff0000" />
			<rect x="750" y="2" width="23.83" height="20" fill="#0000e6" />
			<rect x="1000" y="2" width="93.60" height="20" fill="#0000e6" />
			<rect x="1250" y="2" width="93.79" height="20" fill="#0000e6" />
			<rect x="1500" y="2" width="96.64" height="20" fill="#0000e6" />
		</g>
		<g transform="translate(0, 1008)">
			<text x="8" y="19">Northland</text>
			<rect x="250" y="2" width="54.54" height="20" fill="#0000e6" />
			<rect x="500" y="2" width="75.58" height="20" fill="#0000e6" />
			<rect x="750" y="2" width="92.75" height="20" fill="#0000e6" />
			<rect x="1000" y="2" width="100.54" height="20" fill="#0000e6" />
			<rect x="1250" y="2" width="113.62" height="20" fill="#0000e6" />
			<rect x="1500" y="2" width="93.00" height="20" fill="#0000e6" />
		</g>
		<g transform="translate(0, 1032)">
			<text x="8" y="19">Ōhāriu</text>
			<rect x="1000" y="2" width="10.06" height="20" fill="#990099" />
			<rect x="1250" y="2" width="13.92" height="20" fill="#990099" />
			<rect x="1500" y="2" width="7.10" height="20" fill="#990099" />
		</g>
		<g transform="translate(0, 1056)">
			<text x="8" y="19">Ohariu-Belmont</text>
			<rect x="250" y="2" width="125.57" height="20" fill="#990099" />
			<rect x="500" y="2" width="125.34" height="20" fill="#990099" />
			<rect x="750" y="2" width="77.02" height="20" fill="#990099" />
		</g>
		<g transform="translate(0, 1080)">
			<text x="8" y="19">Otago</text>
			<rect x="250" y="2" width="23.67" height="20" fill="#0000e6" />
			<rect x="500" y="2" width="6.84" height="20" fill="#ff0000" />
			<rect x="750" y="2" width="19.95" height="20" fill="#0000e6" />
		</g>
		<g transform="translate(0, 1104)">
			<text x="8" y="19">Ōtaki</text>
			<rect x="250" y="2" width="72.50" height="20" fill="#ff0000" />
			<rect x="500" y="2" width="77.36" height="20" fill="#ff0000" />
			<rect x="750" y="2" width="3.82" height="20" fill="#ff0000" />
			<rect x="1000" y="2" width="13.54" height="20" fill="#0000e6" />
			<rect x="1250" y="2" width="52.31" height="20" fill="#0000e6" />
			<rect x="1500" y="2" width="77.82" height="20" fill="#0000e6" />
		</g>
		<g transform="translate(0, 1128)">
			<text x="8" y="19">Pakuranga</text>
			<rect x="250" y="2" width="53.14" height="20" fill="#0000e6" />
			<rect x="500" y="2" width="45.56" height="20" fill="#0000e6" />
			<rect x="750" y="2" width="95.82" height="20" fill="#0000e6" />
			<rect x="1000" y="2" width="139.06" height="20" fill="#0000e6" />
			<rect x="1250" y="2" width="138.46" height="20" fill="#0000e6" />
			<rect x="1500" y="2" width="128.67" height="20" fill="#0000e6" />
		</g>
		<g transform="translate(0, 1152)">
			<text x="8" y="19">Palmerston North</text>
			<rect x="250" y="2" width="131.53" height="20" fill="#ff0000" />
			<rect x="500" y="2" width="76.27" height="20" fill="#ff0000" />
			<rect x="750" y="2" width="55.00" height="20" fill="#ff0000" />
			<rect x="1000" y="2" width="11.17" height="20" fill="#ff0000" />
			<rect x="1250" y="2" width="32.85" height="20" fill="#ff0000" />
			<rect x="1500" y="2" width="22.12" height="20" fill="#ff0000" />
		</g>
		<g transform="translate(0, 1176)">
			<text x="8" y="19">Papakura</text>
			<rect x="1000" y="2" width="102.77" height="20" fill="#0000e6" />
			<rect x="1250" y="2" width="98.90" height="20" fill="#0000e6" />
			<rect x="1500" y="2" width="51.19" height="20" fill="#0000e6" />
		</g>
		<g transform="translate(0, 1200)">
			<text x="8" y="19">Piako</text>
			<rect x="500" y="2" width="16.21" height="20" fill="#0000e6" />
			<rect x="750" y="2" width="83.51" height="20" fill="#0000e6" />
		</g>
		<g transform="translate(0, 1224)">
			<text x="8" y="19">Port Hills</text>
			<rect x="1000" y="2" width="34.52" height="20" fill="#ff0000" />
			<rect x="1250" y="2" width="30.97" height="20" fill="#ff0000" />
			<rect x="1500" y="2" width="22.28" height="20" fill="#ff0000" />
		</g>
		<g transform="translate(0, 1248)">
			<text x="8" y="19">Port Waikato</text>
			<rect x="250" y="2" width="39.15" height="20" fill="#0000e6" />
			<rect x="500" y="2" width="59.72" height="20" fill="#0000e6" />
			<rect x="750" y="2" width="134.98" height="20" fill="#0000e6" />
		</g>
		<g transform="translate(0, 1272)">
			<text x="8" y="19">Rakaia</text>
			<rect x="250" y="2" width="106.02" height="20" fill="#0000e6" />
			<rect x="500" y="2" width="60.76" height="20" fill="#0000e6" />
			<rect x="750" y="2" width="104.48" height="20" fill="#0000e6" />
		</g>
		<g transform="translate(0, 1296)">
			<text x="8" y="19">Rangitata</text>
			<rect x="1000" y="2" width="81.12" height="20" fill="#0000e6" />
			<rect x="1250" y="2" width="65.37" height="20" fill="#0000e6" />
			<rect x="1500" y="2" width="141.07" height="20" fill="#0000e6" />
		</g>
		<g transform="translate(0, 1320)">
			<text x="8" y="19">Rangitīkei</text>
			<rect x="250" y="2" width="2.89" height="20" fill="#0000e6" />
			<rect x="500" y="2" width="53.15" height="20" fill="#0000e6" />
			<rect x="750" y="2" width="96.60" height="20" fill="#0000e6" />
			<rect x="1000" y="2" width="120.42" height="20" fill="#0000e6" />
			<rect x="1250" y="2" width="93.82" height="20" fill="#0000e6" />
			<rect x="1500" y="2" width="110.60" height="20" fill="#0000e6" />
		</g>
		<g transform="translate(0, 1344)">
			<text x="8" y="19">Rimutaka</text>
			<rect x="250" y="2" width="83.74" height="20" fill="#ff0000" />
			<rect x="500" y="2" width="126.15" height="20" fill="#ff0000" />
			<rect x="750" y="2" width="82.77" height="20" fill="#ff0000" />
			<rect x="1000" y="2" width="7.53" height="20" fill="#ff0000" />
			<rect x="1250" y="2" width="32.86" height="20" fill="#ff0000" />
			<rect x="1500" y="2" width="66.64" height="20" fill="#ff0000" />
		</g>
		<g transform="translate(0, 1368)">
			<text x="8" y="19">Rodney</text>
			<rect x="250" y="2" width="69.05" height="20" fill="#0000e6" />
			<rect x="500" y="2" width="45.66" height="20" fill="#0000e6" />
			<rect x="750" y="2" width="115.36" height="20" fill="#0000e6" />
			<rect x="1000" y="2" width="156.35" height="20" fill="#0000e6" />
			<rect x="1250" y="2" width="122.22" height="20" fill="#0000e6" />
			<rect x="1500" y="2" width="202.30" height="20" fill="#0000e6" />
		</g>
		<g transform="translate(0, 1392)">
			<text x="8" y="19">Rongotai</text>
			<rect x="250" y="2" width="129.28" height="20" fill="#ff0000" />
			<rect x="500" y="2" width="114.93" height="20" fill="#ff0000" />
			<rect x="750" y="2" width="126.38" height="20" fill="#ff0000" />
			<rect x="1000" y="2" width="90.20" height="20" fill="#ff0000" />
			<rect x="1250" y="2" width="90.47" height="20" fill="#ff0000" />
			<rect x="1500" y="2" width="96.17" height="20" fill="#ff0000" />
		</g>
		<g transform="translate(0, 1416)">
			<text x="8" y="19">Rotorua</text>
			<rect x="250" y="2" width="49.78" height="20" fill="#ff0000" />
			<rect x="500" y="2" width="77.44" height="20" fill="#ff0000" />
			<rect x="750" y="2" width="6.62" height="20" fill="#ff0000" />
			<rect x="1000" y="2" width="50.65" height="20" fill="#0000e6" />
			<rect x="1250" y="2" width="73.57" height="20" fill="#0000e6" />
			<rect x="1500" y="2" width="74.18" height="20" fill="#0000e6" />
		</g>
		<g transform="translate(0, 1440)">
			<text x="8" y="19">Selwyn</text>
			<rect x="1000" y="2" width="110.75" height="20" fill="#0000e6" />
			<rect x="1250" y="2" width="194.51" height="20" fill="#0000e6" />
			<rect x="1500" y="2" width="205.61" height="20" fill="#0000e6" />
		</g>
		<g transform="translate(0, 1464)">
			<text x="8" y="19">Tainui</text>
			<rect x="500" y="2" width="34.30" height="20" fill="#ff0000" />
			<rect x="750" y="2" width="18.60" height="20" fill="#ff0000" />
		</g>
		<g transform="translate(0, 1488)">
			<text x="8" y="19">Tāmaki</text>
			<rect x="250" y="2" width="49.11" height="20" fill="#0000e6" />
			<rect x="500" y="2" width="12.07" height="20" fill="#0000e6" />
			<rect x="750" y="2" width="95.10" height="20" fill="#0000e6" />
			<rect x="1000" y="2" width="170.20" height="20" fill="#0000e6" />
			<rect x="1250" y="2" width="177.86" height="20" fill="#0000e6" />
			<rect x="1500" y="2" width="204.21" height="20" fill="#0000e6" />
		</g>
		<g transform="translate(0, 1512)">
			<text x="8" y="19">Tāmaki Makaurau</text>
			<rect x="500" y="2" width="94.44" height="20" fill="#ff0000" />
			<rect x="750" y="2" width="21.27" height="20" fill="#660000" />
			<rect x="1000" y="2" width="75.40" height="20" fill="#660000" />
			<rect x="1250" y="2" width="9.36" height="20" fill="#660000" />
			<rect x="1500" y="2" width="14.62" height="20" fill="#ff0000" />
		</g>
		<g transform="translate(0, 1536)">
			<text x="8" y="19">Taranaki-King Country</text>
			<rect x="250" y="2" width="65.10" height="20" fill="#0000e6" />
			<rect x="500" y="2" width="71.75" height="20" fill="#0000e6" />
			<rect x="750" y="2" width="131.18" height="20" fill="#0000e6" />
			<rect x="1000" y="2" width="156.18" height="20" fill="#0000e6" />
			<rect x="1250" y="2" width="150.89" height="20" fill="#0000e6" />
			<rect x="1500" y="2" width="167.73" height="20" fill="#0000e6" />
		</g>
		<g transform="translate(0, 1560)">
			<text x="8" y="19">Taupō</text>
			<rect x="250" y="2" width="35.78" height="20" fill="#ff0000" />
			<rect x="500" y="2" width="71.28" height="20" fill="#ff0000" />
			<rect x="750" y="2" width="12.85" height="20" fill="#ff0000" />
			<rect x="1000" y="2" width="64.45" height="20" fill="#0000e6" />
			<rect x="1250" y="2" width="141.15" height="20" fill="#0000e6" />
			<rect x="1500" y="2" width="150.46" height="20" fill="#0000e6" />
		</g>
		<g transform="translate(0, 1584)">
			<text x="8" y="19">Tauranga</text>
			<rect x="250" y="2" width="0.63" height="20" fill="#000000" />
			<rect x="500" y="2" width="103.62" height="20" fill="#000000" />
			<rect x="750" y="2" width="7.30" height="20" fill="#0000e6" />
			<rect x="1000" y="2" width="117.42" height="20" fill="#0000e6" />
			<rect x="1250" y="2" width="172.64" height="20" fill="#0000e6" />
			<rect x="1500" y="2" width="148.42" height="20" fill="#0000e6" />
		</g>
		<g transform="translate(0, 1608)">
			<text x="8" y="19">Te Atatū</text>
			<rect x="250" y="2" width="92.62" height="20" fill="#ff0000" />
			<rect x="500" y="2" width="129.32" height="20" fill="#ff0000" />
			<rect x="750" y="2" width="104.47" height="20" fill="#ff0000" />
			<rect x="1000" y="2" width="52.98" height="20" fill="#ff0000" />
			<rect x="1250" y="2" width="54.16" height="20" fill="#ff0000" />
			<rect x="1500" y="2" width="28.13" height="20" fill="#ff0000" />
		</g>
		<g transform="translate(0, 1632)">
			<text x="8" y="19">Te Tai Hauāuru</text>
			<rect x="250" y="2" width="62.33" height="20" fill="#ff0000" />
			<rect x="500" y="2" width="86.57" height="20" fill="#ff0000" />
			<rect x="750" y="2" width="51.13" height="20" fill="#660000" />
			<rect x="1000" y="2" width="78.17" height="20" fill="#660000" />
			<rect x="1250" y="2" width="32.21" height="20" fill="#660000" />
			<rect x="1500" y="2" width="15.54" height="20" fill="#ff0000" />
		</g>
		<g transform="translate(0, 1656)">
			<text x="8" y="19">Te Tai Tokerau</text>
			<rect x="250" y="2" width="56.92" height="20" fill="#ff0000" />
			<rect x="500" y="2" width="53.36" height="20" fill="#ff0000" />
			<rect x="750" y="2" width="36.13" height="20" fill="#660000" />
			<rect x="1000" y="2" width="63.08" height="20" fill="#660000" />
			<rect x="1250" y="2" width="11.65" height="20" fill="#b30000" />
			<rect x="1500" y="2" width="7.43" height="20" fill="#ff0000" />
		</g>
		<g transform="translate(0, 1680)">
			<text x="8" y="19">Te Tai Tonga</text>
			<rect x="250" y="2" width="45.22" height="20" fill="#ff0000" />
			<rect x="500" y="2" width="80.52" height="20" fill="#ff0000" />
			<rect x="750" y="2" width="25.03" height="20" fill="#ff0000" />
			<rect x="1000" y="2" width="10.49" height="20" fill="#660000" />
			<rect x="1250" y="2" width="14.75" height="20" fill="#ff0000" />
			<rect x="1500" y="2" width="35.54" height="20" fill="#ff0000" />
		</g>
		<g transform="translate(0, 1704)">
			<text x="8" y="19">Titirangi</text>
			<rect x="250" y="2" width="58.00" height="20" fill="#ff0000" />
		</g>
		<g transform="translate(0, 1728)">
			<text x="8" y="19">Tukituki</text>
			<rect x="250" y="2" width="86.46" height="20" fill="#ff0000" />
			<rect x="500" y="2" width="64.10" height="20" fill="#ff0000" />
			<rect x="750" y="2" width="24.02" height="20" fill="#0000e6" />
			<rect x="1000" y="2" width="78.11" height="20" fill="#0000e6" />
			<rect x="1250" y="2" width="96.60" height="20" fill="#0000e6" />
			<rect x="1500" y="2" width="64.90" height="20" fill="#0000e6" />
		</g>
		<g transform="translate(0, 1752)">
			<text x="8" y="19">Upper Harbour</text>
			<rect x="1500" y="2" width="96.92" height="20" fill="#0000e6" />
		</g>
		<g transform="translate(0, 1776)">
			<text x="8" y="19">Waiariki</text>
			<rect x="250" y="2" width="43.69" height="20" fill="#ff0000" />
			<rect x="500" y="2" width="67.17" height="20" fill="#ff0000" />
			<rect x="750" y="2" width="28.71" height="20" fill="#660000" />
			<rect x="1000" y="2" width="68.12" height="20" fill="#660000" />
			<rect x="1250" y="2" width="18.83" height="20" fill="#660000" />
			<rect x="1500" y="2" width="38.89" height="20" fill="#660000" />
		</g>
		<g transform="translate(0, 1800)">
			<text x="8" y="19">Waikato</text>
			<rect x="1000" y="2" width="128.50" height="20" fill="#0000e6" />
			<rect x="1250" y="2" width="141.98" height="20" fill="#0000e6" />
			<rect x="1500" y="2" width="161.69" height="20" fill="#0000e6" />
		</g>
		<g transform="translate(0, 1824)">
			<text x="8" y="19">Waimakariri</text>
			<rect x="250" y="2" width="11.41" height="20" fill="#ff0000" />
			<rect x="500" y="2" width="105.36" height="20" fill="#ff0000" />
			<rect x="750" y="2" width="56.06" height="20" fill="#ff0000" />
			<rect x="1000" y="2" width="3.90" height="20" fill="#ff0000" />
			<rect x="1250" y="2" width="6.42" height="20" fill="#0000e6" />
			<rect x="1500" y="2" width="25.06" height="20" fill="#0000e6" />
		</g>
		<g transform="translate(0, 1848)">
			<text x="8" y="19">Wairarapa</text>
			<rect x="250" y="2" width="30.33" height="20" fill="#ff0000" />
			<rect x="500" y="2" width="63.72" height="20" fill="#ff0000" />
			<rect x="750" y="2" width="27.52" height="20" fill="#0000e6" />
			<rect x="1000" y="2" width="67.58" height="20" fill="#0000e6" />
			<rect x="1250" y="2" width="71.35" height="20" fill="#0000e6" />
			<rect x="1500" y="2" width="67.71" height="20" fill="#0000e6" />
		</g>
		<g transform="translate(0, 1872)">
			<text x="8" y="19">Waitakere</text>
			<rect x="250" y="2" width="40.56" height="20" fill="#0000e6" />
			<rect x="500" y="2" width="23.33" height="20" fill="#ff0000" />
			<rect x="750" y="2" width="49.42" height="20" fill="#ff0000" />
			<rect x="1000" y="2" width="6.32" height="20" fill="#0000e6" />
			<rect x="1250" y="2" width="0.09" height="20" fill="#0000e6" />
		</g>
		<g transform="translate(0, 1896)">
			<text x="8" y="19">Waitaki</text>
			<rect x="1000" y="2" width="110.39" height="20" fill="#0000e6" />
			<rect x="1250" y="2" width="141.43" height="20" fill="#0000e6" />
			<rect x="1500" y="2" width="166.68" height="20" fill="#0000e6" />
		</g>
		<g transform="translate(0, 1920)">
			<text x="8" y="19">Wellington Central</text>
			<rect x="250" y="2" width="14.82" height="20" fill="#ff0000" />
			<rect x="500" y="2" width="41.81" height="20" fill="#ff0000" />
			<rect x="750" y="2" width="61.80" height="20" fill="#ff0000" />
			<rect x="1000" y="2" width="19.04" height="20" fill="#ff0000" />
			<rect x="1250" y="2" width="63.76" height="20" fill="#ff0000" />
			<rect x="1500" y="2" width="82.67" height="20" fill="#ff0000" />
		</g>
		<g transform="translate(0, 1944)">
			<text x="8" y="19">West Coast-Tasman</text>
			<rect x="250" y="2" width="73.78" height="20" fill="#ff0000" />
			<rect x="500" y="2" width="77.22" height="20" fill="#ff0000" />
			<rect x="750" y="2" width="21.54" height="20" fill="#ff0000" />
			<rect x="1000" y="2" width="9.71" height="20" fill="#0000e6" />
			<rect x="1250" y="2" width="25.39" height="20" fill="#ff0000" />
			<rect x="1500" y="2" width="40.94" height="20" fill="#ff0000" />
		</g>
		<g transform="translate(0, 1968)">
			<text x="8" y="19">Whanganui</text>
			<rect x="250" y="2" width="31.55" height="20" fill="#ff0000" />
			<rect x="500" y="2" width="20.70" height="20" fill="#ff0000" />
			<rect x="750" y="2" width="24.02" height="20" fill="#0000e6" />
			<rect x="1000" y="2" width="63.33" height="20" fill="#0000e6" />
			<rect x="1250" y="2" width="50.46" height="20" fill="#0000e6" />
			<rect x="1500" y="2" width="45.05" height="20" fill="#0000e6" />
		</g>
		<g transform="translate(0, 1992)">
			<text x="8" y="19">Whangarei</text>
			<rect x="250" y="2" width="19.34" height="20" fill="#0000e6" />
			<rect x="500" y="2" width="32.14" height="20" fill="#0000e6" />
			<rect x="750" y="2" width="90.89" height="20" fill="#0000e6" />
			<rect x="1000" y="2" width="146.63" height="20" fill="#0000e6" />
			<rect x="1250" y="2" width="124.47" height="20" fill="#0000e6" />
			<rect x="1500" y="2" width="131.69" height="20" fill="#0000e6" />
		</g>
		<g transform="translate(0, 2016)">
			<text x="8" y="19">Wigram</text>
			<rect x="250" y="2" width="98.85" height="20" fill="#00ff00" />
			<rect x="500" y="2" width="31.76" height="20" fill="#999999" />
			<rect x="750" y="2" width="85.48" height="20" fill="#999999" />
			<rect x="1000" y="2" width="47.67" height="20" fill="#999999" />
			<rect x="1250" y="2" width="15.00" height="20" fill="#ff0000" />
			<rect x="1500" y="2" width="33.30" height="20" fill="#ff0000" />
		</g>
	</g>
	<script type="text/javascript"><![CDATA[
		function sort(column) {
			let y = 0;
			for (let row of [...document.querySelectorAll('#data > g')].sort((a, b) => {
				if (column == 0) {
					let nameA = a.querySelector('text').textContent.replace('Ō', 'O');
					let nameB = b.querySelector('text').textContent.replace('Ō', 'O');
					return nameA < nameB ? -1 : 1;
				}
				let colA = a.querySelector('rect[x="' + column + '"]');
				let colB = b.querySelector('rect[x="' + column + '"]');
				if (colA && !colB) {
					return -1;
				}
				if (!colA && !colB) {
					return 0;
				}
				if (!colA && colB) {
					return 1;
				}
				return parseInt(colB.getAttribute('width'), 10) - parseInt(colA.getAttribute('width'), 10);
			})) {
				row.setAttribute('transform', 'translate(0, ' + y + ')');
				y += 24;
			}
		}
	]]></script>
</svg>
